<svg width="91" height="95" viewBox="0 0 91 95" fill="none" xmlns="http://www.w3.org/2000/svg">
<path d="M89.603 15.0489C87.6446 10.1099 83.0575 6.43658 80.4975 4.6865C76.4492 1.91926 72.1067 0.217422 68.8808 0.134297C68.0673 0.113515 67.3055 0.121679 66.616 0.158974C65.1264 0.239687 63.8699 1.11695 63.2763 2.44473C54.0697 -0.816074 44.1169 -0.814776 34.911 2.44844C34.3182 1.11862 33.0606 0.239873 31.5691 0.158974C30.8804 0.122051 30.1187 0.113701 29.3045 0.134297C26.0792 0.217422 21.7366 1.91944 17.6884 4.68669C15.1284 6.43658 10.5413 10.11 8.58285 15.0489C6.8337 19.4603 7.72915 23.5919 11.1725 26.9974C12.284 28.0966 13.2119 29.221 13.9303 30.3397C14.3456 30.9859 15.2065 31.1739 15.8531 30.7588C16.5 30.3441 16.6879 29.4839 16.2727 28.8377C15.444 27.5476 14.3868 26.2632 13.1304 25.0208C10.5053 22.4244 9.84568 19.4141 11.1705 16.0733C13.9767 8.9962 24.1946 3.04794 29.3762 2.91435C30.1165 2.89523 30.8038 2.90266 31.4188 2.93568C32.1564 2.97576 32.382 3.57638 32.4336 3.7597C32.4839 3.93782 32.6019 4.55124 32.0113 4.95777C29.9213 6.39669 27.4088 9.22331 27.3077 14.5166C27.2431 17.9075 26.4926 24.5163 24.9974 31.0139C22.7451 40.8025 20.4773 43.3105 19.6069 43.9345C19.1121 44.2891 18.8002 44.2592 18.5604 44.1835C17.9919 44.0033 17.839 43.9549 18.297 41.3229C18.5822 39.6829 18.9371 37.6419 18.6497 35.2516C18.558 34.4892 17.8656 33.9445 17.1021 34.0371C16.3391 34.1285 15.7947 34.821 15.8863 35.5834C16.125 37.5682 15.822 39.3099 15.5546 40.8468C15.1653 43.0854 14.6807 45.8716 17.719 46.8344C18.0366 46.9352 18.4209 47.0122 18.8532 47.0122C19.5476 47.0122 20.3656 46.8133 21.2292 46.1943C21.3006 46.1431 21.3719 46.0893 21.4427 46.0328C21.5843 47.9304 22.3918 49.6954 23.7528 51.0552C23.758 51.0604 23.7634 51.0658 23.7688 51.0708L32.7394 59.7505C32.942 59.9464 33.1474 60.1385 33.3558 60.3265C27.2175 62.2469 23.4142 68.4592 24.6102 74.8728L26.3055 83.9649H25.0097C23.8354 83.9649 22.7252 84.2453 21.7428 84.7424L21.7481 84.6982C19.4715 84.4173 17.478 83.1355 16.279 81.1815C15.0839 79.2327 14.8432 76.8835 15.6179 74.7338C16.6465 72.1241 16.4398 69.2321 15.0495 66.7959C15.0445 66.787 15.0391 66.7781 15.0339 66.7692L14.754 66.3029C14.4697 65.8294 13.9318 65.5691 13.3839 65.639C9.88688 66.0862 6.66244 67.7747 4.30451 70.3933C1.94658 73.0119 0.606006 76.3935 0.529561 79.915C0.468145 82.7285 1.06913 86.7708 4.28132 90.0511C7.49759 93.3349 12.4984 95 19.1458 95H79.04C79.8085 95 80.4316 94.3775 80.4316 93.6095V91.2141C80.4316 87.2167 77.1768 83.9646 73.1762 83.9646H71.8803L73.5757 74.8724C74.7615 68.5128 71.032 62.3511 64.9848 60.3754C65.2813 60.1094 65.5723 59.8351 65.8573 59.5529L74.4329 51.0552C75.7939 49.6961 76.6016 47.9312 76.7431 46.0328C76.8871 46.147 77.0326 46.251 77.1792 46.3449C77.8701 46.7878 78.601 47.012 79.3361 47.012C79.7135 47.012 80.0921 46.9528 80.4669 46.834C83.505 45.8712 83.0204 43.0852 82.6311 40.8464C82.0351 37.4199 81.2189 32.7271 87.0135 26.9972C90.4567 23.5919 91.3522 19.4603 89.603 15.0489ZM17.7542 91.2141V92.1919C12.587 91.9867 8.72795 90.6148 6.27112 88.1058C3.73544 85.5165 3.26267 82.2551 3.31239 79.9749C3.37437 77.119 4.46167 74.3764 6.37392 72.2527C8.08058 70.3573 10.3467 69.0627 12.8304 68.5486C13.621 70.1706 13.6947 72.0354 13.0226 73.7289C13.0176 73.7415 13.0126 73.7543 13.008 73.7671C11.9349 76.7223 12.2622 79.9542 13.9062 82.6344C15.1425 84.649 16.9944 86.1427 19.1644 86.9237C18.2784 88.126 17.7542 89.61 17.7542 91.2141ZM45.6254 92.219C46.0887 91.412 46.3539 90.4774 46.3539 89.4822V75.3669C46.3539 73.8578 47.5826 72.6301 49.0929 72.6301C50.6033 72.6301 51.832 73.8578 51.832 75.3669V89.4822C51.832 90.4774 52.0971 91.4119 52.5604 92.219H45.6254ZM60.0933 92.219H57.3542C55.8439 92.219 54.6152 90.9912 54.6152 89.4822V75.3669C54.6152 72.3245 52.1379 69.8493 49.0929 69.8493C46.0479 69.8493 43.5707 72.3245 43.5707 75.3669V89.4822C43.5707 90.9912 42.342 92.219 40.8316 92.219H38.0926V74.0033C38.0926 73.2353 37.4695 72.6128 36.701 72.6128C35.9325 72.6128 35.3094 73.2353 35.3094 74.0033V92.219H20.5375V91.2141C20.5375 88.75 22.5438 86.7455 25.0097 86.7455H27.9805C28.3941 86.7455 28.7865 86.5617 29.0509 86.2436C29.3153 85.9256 29.4244 85.5068 29.3485 85.1005L27.3463 74.3633C26.3709 69.1316 29.6456 64.071 34.8097 62.8067L35.3094 62.7475V67.5277C35.3094 68.2957 35.9325 68.9182 36.701 68.9182C37.4695 68.9182 38.0926 68.2957 38.0926 67.5277V63.6507C41.4755 65.4513 45.2696 66.4076 49.1976 66.4076C53.051 66.4076 56.7668 65.4917 60.0933 63.7635V92.219ZM70.8396 74.3631L68.8373 85.1003C68.7615 85.5066 68.8707 85.9256 69.135 86.2435C69.3992 86.5613 69.7916 86.7454 70.2054 86.7454H73.1762C75.6421 86.7454 77.6484 88.75 77.6484 91.2139V92.2188H62.8765V62.751L63.38 62.8074C68.542 64.0734 71.8148 69.1327 70.8396 74.3631ZM85.0554 25.0208C78.2277 31.7725 79.2675 37.7508 79.8887 41.3227C80.3465 43.9547 80.1937 44.0031 79.6252 44.1833C79.4053 44.2531 79.1217 44.2863 78.6815 44.0041C76.6429 42.6975 74.8999 37.3396 74.2451 35.0965C73.0511 31.0063 72.0083 25.7687 71.384 20.7268C71.2895 19.9646 70.5943 19.4238 69.8321 19.5176C69.0693 19.6119 68.5275 20.3062 68.6219 21.0683C69.2637 26.2513 70.3395 31.6483 71.5734 35.8751C72.3368 38.49 73.1363 40.6262 73.9822 42.303V45.4291C73.9822 46.8116 73.4435 48.1112 72.4691 49.0842L63.8973 57.5781C59.9613 61.4783 54.7408 63.6262 49.1976 63.6262C43.7477 63.6262 38.5904 61.5401 34.6756 57.7522L25.7135 49.0808C24.7397 48.1039 24.2037 46.8075 24.2037 45.4291V42.2954C25.488 39.7586 26.6607 36.1968 27.71 31.6368C29.2496 24.9458 30.0232 18.0991 30.0903 14.5693C30.1388 12.0319 30.8451 9.98999 32.1944 8.47444C32.5267 10.3887 33.5456 12.3578 35.8575 13.6575C37.9432 14.83 39.8197 14.4901 41.4757 14.1902C42.9812 13.9176 44.17 13.7024 45.4954 14.5435C48.281 16.3114 48.3767 24.0363 47.7524 29.206C46.4337 29.311 45.1272 29.5715 43.8685 29.9873C43.41 30.1389 43.0628 30.5169 42.9513 30.9865C42.8398 31.4559 42.9799 31.9496 43.3213 32.2907L47.7011 36.6672V43.5031C47.7011 44.7845 46.6578 45.8269 45.3753 45.8269H41.6644C40.3819 45.8269 39.3385 44.7845 39.3385 43.5031C39.3385 42.7351 38.7155 42.1126 37.9469 42.1126C37.1784 42.1126 36.5553 42.7351 36.5553 43.5031C36.5553 46.3178 38.8472 48.6079 41.6644 48.6079H43.9837V49.1322C43.9837 51.947 46.2756 54.237 49.0927 54.237C51.9099 54.237 54.2018 51.947 54.2018 49.1322V48.6079H56.5211C59.3383 48.6079 61.6301 46.3178 61.6301 43.5031C61.6301 42.7351 61.0071 42.1126 60.2385 42.1126C59.47 42.1126 58.8469 42.7351 58.8469 43.5031C58.8469 44.7845 57.8036 45.8269 56.5211 45.8269H52.8102C51.5277 45.8269 50.4843 44.7845 50.4843 43.5031V36.6672L54.8644 32.2907C55.2058 31.9495 55.3459 31.4559 55.2343 30.9865C55.1228 30.517 54.7757 30.1389 54.3172 29.9873C53.0955 29.5837 51.829 29.3266 50.55 29.2158C50.9992 25.2006 51.6154 15.1332 46.9873 12.196C44.7435 10.7719 42.6561 11.1502 40.9791 11.4538C39.5569 11.7113 38.4334 11.9149 37.2222 11.2337C35.751 10.4067 34.9808 9.158 34.8676 7.41646C34.8177 6.64792 34.9133 5.94396 35.0125 5.45727C35.025 5.4248 35.037 5.39195 35.0487 5.35911C44.1286 1.92519 54.0422 1.92204 63.1353 5.3541C63.398 6.1026 63.8962 6.76611 64.5954 7.24724C66.855 8.80286 68.0326 11.2664 68.0957 14.5691C68.1106 15.3369 68.7503 15.9496 69.5137 15.9327C70.2822 15.918 70.8932 15.2836 70.8784 14.516C70.7772 9.22275 68.2647 6.39632 66.1744 4.95722C65.584 4.55068 65.7022 3.93745 65.7523 3.75914C65.8038 3.57601 66.0296 2.97521 66.7665 2.93531C67.3823 2.90229 68.0699 2.89486 68.8093 2.91379C73.9913 3.04738 84.2092 8.99583 87.0154 16.0728C88.3402 19.4141 87.6807 22.4244 85.0554 25.0208ZM49.0929 34.1252L47.0486 32.0825C48.4018 31.883 49.7839 31.8832 51.1373 32.0825L49.0929 34.1252ZM51.4186 48.4156V49.1324C51.4186 50.4138 50.3752 51.4562 49.0927 51.4562C47.8102 51.4562 46.7669 50.4138 46.7669 49.1324V48.4156C47.6676 48.1605 48.4676 47.6644 49.0927 47.0016C49.718 47.6644 50.5181 48.1607 51.4186 48.4156Z" fill="black"/>
</svg>
