<svg width="149" height="47" viewBox="0 0 149 47" fill="none" xmlns="http://www.w3.org/2000/svg">
<path d="M30.4941 27.2109L35.9629 0.453125H42.0908L33.8877 36H27.9795L21.2168 10.0479L14.3076 36H8.375L0.171875 0.453125H6.2998L11.8174 27.1621L18.6045 0.453125H23.7803L30.4941 27.2109ZM56.8857 36.4883C53.126 36.4883 50.0742 35.3083 47.7305 32.9482C45.403 30.5719 44.2393 27.4144 44.2393 23.4756V22.7432C44.2393 20.1064 44.7438 17.7546 45.7529 15.6875C46.7783 13.6042 48.2106 11.9847 50.0498 10.8291C51.889 9.6735 53.9398 9.0957 56.2021 9.0957C59.7992 9.0957 62.5742 10.2432 64.5273 12.5381C66.4967 14.833 67.4814 18.0801 67.4814 22.2793V24.6719H50.2207C50.3997 26.8529 51.124 28.5781 52.3936 29.8477C53.6794 31.1172 55.2907 31.752 57.2275 31.752C59.9456 31.752 62.1592 30.6533 63.8682 28.4561L67.0664 31.5078C66.0085 33.0866 64.5924 34.3154 62.8184 35.1943C61.0605 36.057 59.083 36.4883 56.8857 36.4883ZM56.1777 13.8564C54.5501 13.8564 53.2318 14.4261 52.2227 15.5654C51.2298 16.7048 50.5951 18.2917 50.3184 20.3262H61.6221V19.8867C61.4919 17.901 60.9629 16.4036 60.0352 15.3945C59.1074 14.3691 57.8216 13.8564 56.1777 13.8564ZM87.2324 0.453125H93.3848V25.3799C93.3848 28.7816 92.3187 31.4834 90.1865 33.4854C88.0706 35.4873 85.2712 36.4883 81.7881 36.4883C78.0771 36.4883 75.2126 35.5524 73.1943 33.6807C71.1761 31.8089 70.167 29.2048 70.167 25.8682H76.3193C76.3193 27.7562 76.7832 29.1803 77.7109 30.1406C78.6549 31.0846 80.014 31.5566 81.7881 31.5566C83.4482 31.5566 84.7666 31.0114 85.7432 29.9209C86.736 28.8141 87.2324 27.2923 87.2324 25.3555V0.453125ZM98.7803 22.5479C98.7803 19.96 99.293 17.6325 100.318 15.5654C101.344 13.4821 102.784 11.887 104.64 10.7803C106.495 9.65723 108.627 9.0957 111.036 9.0957C114.601 9.0957 117.49 10.2432 119.703 12.5381C121.933 14.833 123.137 17.8766 123.316 21.6689L123.341 23.0605C123.341 25.6647 122.836 27.9922 121.827 30.043C120.834 32.0938 119.402 33.6807 117.53 34.8037C115.675 35.9268 113.526 36.4883 111.085 36.4883C107.358 36.4883 104.371 35.2513 102.125 32.7773C99.8952 30.2871 98.7803 26.9749 98.7803 22.8408V22.5479ZM104.713 23.0605C104.713 25.7786 105.274 27.9108 106.397 29.457C107.521 30.987 109.083 31.752 111.085 31.752C113.087 31.752 114.641 30.9707 115.748 29.4082C116.871 27.8457 117.433 25.5589 117.433 22.5479C117.433 19.8786 116.855 17.7627 115.699 16.2002C114.56 14.6377 113.006 13.8564 111.036 13.8564C109.099 13.8564 107.561 14.6296 106.422 16.1758C105.283 17.7057 104.713 20.0007 104.713 23.0605ZM137.208 27.5039L142.579 9.58398H148.902L138.404 40.0039C136.793 44.4473 134.059 46.6689 130.201 46.6689C129.339 46.6689 128.386 46.5225 127.345 46.2295V41.6396L128.468 41.7129C129.965 41.7129 131.088 41.4362 131.837 40.8828C132.602 40.3457 133.204 39.4342 133.644 38.1484L134.498 35.8779L125.221 9.58398H131.617L137.208 27.5039Z" fill="white"/>
</svg>
