<svg width="636" height="453" viewBox="0 0 636 453" fill="none" xmlns="http://www.w3.org/2000/svg">
<path opacity="0.1" d="M571.115 384.734C566.373 387.177 561.405 389.287 556.51 391.357C538.402 398.993 520.015 406.708 500.569 409.331C464.027 414.224 426.327 400.91 390.431 409.218C360.362 416.154 335.495 437.41 306.119 446.876C292.46 451.276 278.248 453 263.91 453H262.059C260.294 453 258.536 452.933 256.771 452.867C242.233 452.321 227.635 450.204 213.383 447.428C168.384 438.774 122.585 422.911 88.1809 393.707C188.356 375.408 394.706 347.329 571.115 384.734Z" fill="#252223"/>
<path opacity="0.3" d="M606.031 165.756V123.152H580.725V165.756H550.756V99.853H528.779V50.5922H510.798V0H473.504V50.5922H455.523V99.853H434.212V40.6069H422.224V10.651H414.898V40.6069H372.276V229.662H339.644V209.691H319.665V229.662H287.032V165.756H228.427V123.152H203.12V165.756H201.788V247.636H175.15V199.706H143.183V247.636H116.545V99.853H95.8995V50.5922H19.9791V99.853H0V360.137H116.545H201.788H287.032H372.276H434.212H550.756H636V165.756H606.031Z" fill="white"/>
<path opacity="0.4" d="M40.6241 115.164H12.6534V131.14H40.6241V115.164Z" fill="white"/>
<path opacity="0.4" d="M75.2545 131.14H103.225V115.164H75.2545V131.14Z" fill="white"/>
<path opacity="0.4" d="M40.6241 146.451H12.6534V162.428H40.6241V146.451Z" fill="white"/>
<path opacity="0.4" d="M75.2545 162.428H103.225V146.451H75.2545V162.428Z" fill="white"/>
<path opacity="0.4" d="M40.6241 177.738H12.6534V193.715H40.6241V177.738Z" fill="white"/>
<path opacity="0.4" d="M75.2545 193.715H103.225V177.738H75.2545V193.715Z" fill="white"/>
<path opacity="0.4" d="M40.6241 209.026H12.6534V225.002H40.6241V209.026Z" fill="white"/>
<path opacity="0.4" d="M75.2545 225.002H103.225V209.026H75.2545V225.002Z" fill="white"/>
<path opacity="0.4" d="M40.6241 240.313H12.6534V256.289H40.6241V240.313Z" fill="white"/>
<path opacity="0.4" d="M75.2545 256.289H103.225V240.313H75.2545V256.289Z" fill="white"/>
<path opacity="0.4" d="M40.6241 271.6H12.6534V287.577H40.6241V271.6Z" fill="white"/>
<path opacity="0.4" d="M75.2545 287.577H103.225V271.6H75.2545V287.577Z" fill="white"/>
<path opacity="0.4" d="M40.6241 302.888H12.6534V318.864H40.6241V302.888Z" fill="white"/>
<path opacity="0.4" d="M75.2545 318.864H103.225V302.888H75.2545V318.864Z" fill="white"/>
<path opacity="0.4" d="M191.799 263.612H126.534V271.6H191.799V263.612Z" fill="white"/>
<path opacity="0.4" d="M191.799 275.594H126.534V283.583H191.799V275.594Z" fill="white"/>
<path opacity="0.4" d="M191.799 287.577H126.534V295.565H191.799V287.577Z" fill="white"/>
<path opacity="0.4" d="M362.287 267.606H297.022V275.594H362.287V267.606Z" fill="white"/>
<path opacity="0.4" d="M362.287 279.589H297.022V287.577H362.287V279.589Z" fill="white"/>
<path opacity="0.4" d="M362.287 291.571H297.022V299.559H362.287V291.571Z" fill="white"/>
<path opacity="0.4" d="M191.799 299.559H126.534V307.547H191.799V299.559Z" fill="white"/>
<path opacity="0.4" d="M191.799 311.542H126.534V319.53H191.799V311.542Z" fill="white"/>
<path opacity="0.4" d="M191.799 323.524H126.534V331.512H191.799V323.524Z" fill="white"/>
<path opacity="0.4" d="M233.755 181.067H215.774V204.366H233.755V181.067Z" fill="white"/>
<path opacity="0.4" d="M255.066 204.366H273.047V181.067H255.066V204.366Z" fill="white"/>
<path opacity="0.4" d="M233.755 218.345H215.774V241.644H233.755V218.345Z" fill="white"/>
<path opacity="0.4" d="M255.066 241.644H273.047V218.345H255.066V241.644Z" fill="white"/>
<path opacity="0.4" d="M233.755 255.624H215.774V278.923H233.755V255.624Z" fill="white"/>
<path opacity="0.4" d="M255.066 278.923H273.047V255.624H255.066V278.923Z" fill="white"/>
<path opacity="0.4" d="M233.755 292.902H215.774V316.201H233.755V292.902Z" fill="white"/>
<path opacity="0.4" d="M255.066 316.201H273.047V292.902H255.066V316.201Z" fill="white"/>
<path opacity="0.4" d="M396.251 55.9177H372.276V86.5393H396.251V55.9177Z" fill="white"/>
<path opacity="0.4" d="M396.251 99.8531H372.276V130.475H396.251V99.8531Z" fill="white"/>
<path opacity="0.4" d="M396.251 143.788H372.276V174.41H396.251V143.788Z" fill="white"/>
<path opacity="0.4" d="M396.251 187.724H372.276V218.345H396.251V187.724Z" fill="white"/>
<path opacity="0.4" d="M396.251 231.659H372.276V262.281H396.251V231.659Z" fill="white"/>
<path opacity="0.4" d="M396.251 275.594H372.276V306.216H396.251V275.594Z" fill="white"/>
<path opacity="0.4" d="M537.104 118.492H447.864V144.454H537.104V118.492Z" fill="white"/>
<path opacity="0.4" d="M537.437 174.41H448.197V200.372H537.437V174.41Z" fill="white"/>
<path opacity="0.4" d="M537.77 230.328H448.53V256.289H537.77V230.328Z" fill="white"/>
<path opacity="0.4" d="M538.103 286.245H448.863V312.207H538.103V286.245Z" fill="white"/>
<path opacity="0.4" d="M31.9665 64.5716H19.9791V89.8677H31.9665V64.5716Z" fill="white"/>
<path opacity="0.4" d="M636 181.067H606.031V219.677H636V181.067Z" fill="white"/>
<path opacity="0.4" d="M636 236.985H606.031V275.594H636V236.985Z" fill="white"/>
<path opacity="0.4" d="M636 292.902H606.031V331.512H636V292.902Z" fill="white"/>
<path d="M33.0787 319.23C33.0787 319.23 -19.353 350.85 77.299 399.532C77.299 399.532 98.61 360.017 75.048 327.798C70.478 321.516 63.7614 317.128 56.171 315.465C48.5805 313.803 40.6437 314.981 33.8645 318.777L33.0787 319.23Z" fill="white"/>
<path d="M33.6847 318.564C33.6847 318.564 78.551 352.881 77.299 399.532" stroke="#535461" stroke-miterlimit="10"/>
<path d="M79.7364 401.329C79.7364 401.329 63.307 345.571 82.8199 304.532C91.0046 287.31 93.7218 267.972 89.9391 249.28C88.1324 240.404 85.513 231.714 82.114 223.318" stroke="#535461" stroke-width="2" stroke-miterlimit="10"/>
<path d="M94.2346 197.416C94.2346 204.246 81.8609 224.044 81.8609 224.044C81.8609 224.044 69.4805 204.226 69.4805 197.416C69.4422 195.767 69.7341 194.127 70.3389 192.593C70.9437 191.058 71.8493 189.66 73.0024 188.481C74.1555 187.301 75.5328 186.364 77.0535 185.724C78.5742 185.084 80.2076 184.754 81.8575 184.754C83.5075 184.754 85.1408 185.084 86.6615 185.724C88.1822 186.364 89.5596 187.301 90.7127 188.481C91.8658 189.66 92.7714 191.058 93.3762 192.593C93.981 194.127 94.2728 195.767 94.2346 197.416Z" fill="white"/>
<path d="M114.72 235.267C111.004 241.005 89.8392 250.911 89.8392 250.911C89.8392 250.911 90.2188 227.552 93.9349 221.82C95.7398 219.113 98.5387 217.225 101.726 216.565C104.913 215.905 108.232 216.526 110.964 218.294C113.696 220.062 115.622 222.834 116.325 226.01C117.028 229.187 116.451 232.512 114.72 235.267Z" fill="white"/>
<path d="M113.821 299.952C107.72 303.027 84.4448 300.897 84.4448 300.897C84.4448 300.897 96.5721 280.927 102.679 277.851C105.605 276.423 108.977 276.205 112.063 277.244C115.149 278.283 117.701 280.496 119.167 283.403C120.632 286.31 120.893 289.677 119.892 292.774C118.891 295.872 116.71 298.451 113.821 299.952Z" fill="white"/>
<path d="M102.12 348.74C96.6254 352.801 73.3298 354.638 73.3298 354.638C73.3298 354.638 81.9009 332.903 87.4018 328.843C90.0454 326.968 93.3193 326.204 96.5201 326.716C99.7209 327.227 102.593 328.973 104.521 331.578C106.448 334.184 107.276 337.44 106.827 340.649C106.378 343.858 104.688 346.763 102.12 348.74Z" fill="white"/>
<path d="M63.8464 252.235C68.7479 256.995 91.5973 261.928 91.5973 261.928C91.5973 261.928 86.0032 239.248 81.095 234.488C79.9292 233.356 78.5518 232.465 77.0413 231.865C75.5308 231.265 73.9169 230.968 72.2918 230.992C70.6666 231.015 69.0619 231.358 67.5695 232.002C66.077 232.645 64.7259 233.576 63.5933 234.741C62.4608 235.906 61.5689 237.283 60.9687 238.793C60.3685 240.303 60.0717 241.916 60.0952 243.541C60.1187 245.165 60.462 246.769 61.1057 248.261C61.7493 249.753 62.6806 251.103 63.8464 252.235Z" fill="white"/>
<path d="M50.8867 309.465C56.9869 312.547 80.2625 310.416 80.2625 310.416C80.2625 310.416 68.1352 290.446 62.035 287.37C60.5799 286.6 58.9857 286.128 57.3457 285.981C55.7057 285.834 54.0528 286.015 52.4839 286.515C50.915 287.014 49.4615 287.821 48.2085 288.889C46.9555 289.957 45.9281 291.264 45.1866 292.734C44.4451 294.203 44.0044 295.806 43.8901 297.448C43.7758 299.09 43.9904 300.738 44.5211 302.296C45.0519 303.854 45.8883 305.29 46.9813 306.521C48.0743 307.752 49.402 308.753 50.8867 309.465Z" fill="white"/>
<path d="M45.9252 366.82C51.4195 370.881 74.7217 372.718 74.7217 372.718C74.7217 372.718 66.144 350.984 60.6431 346.923C57.9995 345.048 54.7256 344.284 51.5248 344.796C48.324 345.307 45.4515 347.053 43.5243 349.658C41.5972 352.264 40.7692 355.521 41.2181 358.729C41.667 361.938 43.3571 364.843 45.9252 366.82Z" fill="white"/>
<path opacity="0.25" d="M94.2346 197.416C94.2346 204.246 81.8609 224.044 81.8609 224.044C81.8609 224.044 69.4805 204.226 69.4805 197.416C69.4422 195.767 69.7341 194.127 70.3389 192.593C70.9437 191.058 71.8493 189.66 73.0024 188.481C74.1555 187.301 75.5328 186.364 77.0535 185.724C78.5742 185.084 80.2076 184.754 81.8575 184.754C83.5075 184.754 85.1408 185.084 86.6615 185.724C88.1822 186.364 89.5596 187.301 90.7127 188.481C91.8658 189.66 92.7714 191.058 93.3762 192.593C93.981 194.127 94.2728 195.767 94.2346 197.416Z" fill="black"/>
<path opacity="0.25" d="M114.72 235.267C111.004 241.005 89.8392 250.911 89.8392 250.911C89.8392 250.911 90.2188 227.552 93.9349 221.82C95.7398 219.113 98.5387 217.225 101.726 216.565C104.913 215.905 108.232 216.526 110.964 218.294C113.696 220.062 115.622 222.834 116.325 226.01C117.028 229.187 116.451 232.512 114.72 235.267Z" fill="black"/>
<path opacity="0.25" d="M113.821 299.952C107.72 303.027 84.4448 300.897 84.4448 300.897C84.4448 300.897 96.5721 280.927 102.679 277.851C105.605 276.423 108.977 276.205 112.063 277.244C115.149 278.283 117.701 280.496 119.167 283.403C120.632 286.31 120.893 289.677 119.892 292.774C118.891 295.872 116.71 298.451 113.821 299.952Z" fill="black"/>
<path opacity="0.25" d="M102.12 348.74C96.6254 352.801 73.3298 354.638 73.3298 354.638C73.3298 354.638 81.9009 332.903 87.4018 328.843C90.0454 326.968 93.3193 326.204 96.5201 326.716C99.7209 327.227 102.593 328.973 104.521 331.578C106.448 334.184 107.276 337.44 106.827 340.649C106.378 343.858 104.688 346.763 102.12 348.74Z" fill="black"/>
<path opacity="0.25" d="M63.8464 252.235C68.7479 256.995 91.5973 261.928 91.5973 261.928C91.5973 261.928 86.0032 239.248 81.095 234.488C79.9292 233.356 78.5518 232.465 77.0413 231.865C75.5308 231.265 73.9169 230.968 72.2918 230.992C70.6666 231.015 69.0619 231.358 67.5695 232.002C66.077 232.645 64.7259 233.576 63.5933 234.741C62.4608 235.906 61.5689 237.283 60.9687 238.793C60.3685 240.303 60.0717 241.916 60.0952 243.541C60.1187 245.165 60.462 246.769 61.1057 248.261C61.7493 249.753 62.6806 251.103 63.8464 252.235Z" fill="black"/>
<path opacity="0.25" d="M50.8867 309.465C56.9869 312.547 80.2625 310.416 80.2625 310.416C80.2625 310.416 68.1352 290.446 62.035 287.37C60.5799 286.6 58.9857 286.128 57.3457 285.981C55.7057 285.834 54.0528 286.015 52.4839 286.515C50.915 287.014 49.4615 287.821 48.2085 288.889C46.9555 289.957 45.9281 291.264 45.1866 292.734C44.4451 294.203 44.0044 295.806 43.8901 297.448C43.7758 299.09 43.9904 300.738 44.5211 302.296C45.0519 303.854 45.8883 305.29 46.9813 306.521C48.0743 307.752 49.402 308.753 50.8867 309.465Z" fill="black"/>
<path opacity="0.25" d="M45.9252 366.82C51.4195 370.881 74.7217 372.718 74.7217 372.718C74.7217 372.718 66.144 350.984 60.6431 346.923C57.9995 345.048 54.7256 344.284 51.5248 344.796C48.324 345.307 45.4515 347.053 43.5243 349.658C41.5972 352.264 40.7692 355.521 41.2181 358.729C41.667 361.938 43.3571 364.843 45.9252 366.82Z" fill="black"/>
<path d="M592.566 386.931C592.566 386.931 576.136 331.173 595.649 290.133C603.834 272.912 606.558 253.574 602.775 234.881C600.962 226.007 598.343 217.317 594.95 208.919" stroke="#535461" stroke-width="2" stroke-miterlimit="10"/>
<path d="M607.09 183.017C607.09 189.847 594.71 209.645 594.71 209.645C594.71 209.645 582.33 189.827 582.33 183.017C582.33 179.735 583.634 176.588 585.956 174.267C588.277 171.946 591.427 170.642 594.71 170.642C597.993 170.642 601.142 171.946 603.464 174.267C605.786 176.588 607.09 179.735 607.09 183.017Z" fill="white"/>
<path d="M627.549 220.868C623.833 226.606 602.668 236.512 602.668 236.512C602.668 236.512 603.054 213.153 606.771 207.421C608.555 204.667 611.36 202.734 614.57 202.048C617.78 201.361 621.131 201.977 623.886 203.76C626.641 205.543 628.575 208.347 629.262 211.556C629.949 214.764 629.333 218.114 627.549 220.868Z" fill="white"/>
<path d="M626.656 285.553C620.55 288.629 597.274 286.498 597.274 286.498C597.274 286.498 609.408 266.528 615.508 263.452C618.44 261.975 621.839 261.722 624.958 262.749C628.076 263.776 630.659 266 632.137 268.931C633.616 271.862 633.869 275.259 632.841 278.377C631.813 281.494 629.588 284.075 626.656 285.553Z" fill="white"/>
<path d="M614.955 334.341C609.454 338.402 586.159 340.239 586.159 340.239C586.159 340.239 594.737 318.505 600.231 314.444C602.872 312.523 606.166 311.724 609.394 312.22C612.623 312.716 615.524 314.467 617.467 317.092C619.409 319.717 620.235 323.003 619.765 326.234C619.294 329.465 617.566 332.379 614.955 334.341Z" fill="white"/>
<path d="M576.676 237.817C581.584 242.576 604.427 247.509 604.427 247.509C604.427 247.509 598.832 224.829 593.931 220.069C592.771 218.91 591.391 217.993 589.874 217.372C588.356 216.75 586.729 216.436 585.089 216.448C583.449 216.46 581.827 216.798 580.319 217.441C578.81 218.085 577.444 219.022 576.301 220.198C575.158 221.374 574.26 222.765 573.659 224.291C573.058 225.816 572.767 227.446 572.802 229.086C572.837 230.725 573.197 232.341 573.862 233.84C574.527 235.339 575.483 236.69 576.676 237.817Z" fill="white"/>
<path d="M563.742 295.066C569.849 298.148 593.125 296.018 593.125 296.018C593.125 296.018 580.998 276.047 574.891 272.972C573.436 272.201 571.841 271.729 570.201 271.582C568.561 271.435 566.909 271.617 565.34 272.116C563.771 272.615 562.317 273.423 561.064 274.49C559.811 275.558 558.784 276.865 558.042 278.335C557.301 279.804 556.86 281.407 556.746 283.049C556.632 284.691 556.846 286.339 557.377 287.897C557.908 289.455 558.744 290.891 559.837 292.122C560.93 293.353 562.258 294.354 563.742 295.066Z" fill="white"/>
<path d="M558.754 352.421C564.255 356.482 587.551 358.319 587.551 358.319C587.551 358.319 578.973 336.591 573.479 332.524C570.837 330.603 567.544 329.804 564.315 330.3C561.087 330.796 558.185 332.547 556.243 335.172C554.3 337.797 553.474 341.083 553.945 344.314C554.415 347.545 556.144 350.459 558.754 352.421Z" fill="white"/>
<path d="M518.456 381.505C518.456 381.505 509.626 351.549 520.115 329.488C524.568 320.266 525.911 309.849 523.944 299.799C522.969 295.034 521.561 290.368 519.735 285.859" stroke="#535461" stroke-width="2" stroke-miterlimit="10"/>
<path d="M526.262 271.92C526.262 275.594 519.602 286.245 519.602 286.245C519.602 286.245 512.942 275.594 512.942 271.92C512.942 270.154 513.644 268.461 514.893 267.213C516.142 265.964 517.836 265.263 519.602 265.263C521.368 265.263 523.062 265.964 524.311 267.213C525.56 268.461 526.262 270.154 526.262 271.92Z" fill="white"/>
<path d="M537.257 292.263C535.259 295.345 523.884 300.671 523.884 300.671C523.884 300.671 524.091 288.116 526.089 285.034C527.085 283.64 528.58 282.683 530.264 282.363C531.947 282.043 533.69 282.384 535.128 283.315C536.567 284.246 537.591 285.696 537.987 287.363C538.384 289.029 538.122 290.784 537.257 292.263Z" fill="white"/>
<path d="M536.777 327.019C533.494 328.67 520.987 327.525 520.987 327.525C520.987 327.525 527.507 316.794 530.784 315.143C532.348 314.436 534.125 314.361 535.744 314.933C537.363 315.504 538.698 316.679 539.472 318.211C540.245 319.743 540.396 321.515 539.894 323.156C539.392 324.797 538.276 326.181 536.777 327.019Z" fill="white"/>
<path d="M530.484 353.24C527.534 355.424 515.013 356.409 515.013 356.409C515.013 356.409 519.622 344.733 522.579 342.549C523.276 341.973 524.084 341.545 524.953 341.291C525.821 341.037 526.733 340.962 527.631 341.072C528.529 341.182 529.396 341.474 530.177 341.93C530.959 342.385 531.64 342.996 532.178 343.723C532.716 344.451 533.1 345.28 533.306 346.161C533.513 347.042 533.537 347.955 533.379 348.846C533.22 349.736 532.882 350.586 532.384 351.341C531.886 352.097 531.24 352.743 530.484 353.24Z" fill="white"/>
<path d="M509.919 301.383C512.583 303.939 524.83 306.589 524.83 306.589C524.83 306.589 521.826 294.4 519.189 291.844C518.573 291.187 517.83 290.661 517.005 290.299C516.18 289.938 515.29 289.747 514.389 289.739C513.488 289.731 512.595 289.905 511.764 290.252C510.932 290.599 510.18 291.111 509.552 291.757C508.925 292.403 508.434 293.17 508.112 294.01C507.789 294.851 507.64 295.749 507.674 296.648C507.709 297.548 507.925 298.432 508.311 299.246C508.697 300.06 509.244 300.787 509.919 301.383Z" fill="white"/>
<path d="M502.953 332.138C506.236 333.789 518.743 332.65 518.743 332.65C518.743 332.65 512.223 321.92 508.94 320.262C507.375 319.555 505.598 319.48 503.979 320.052C502.361 320.623 501.025 321.798 500.252 323.33C499.479 324.862 499.327 326.634 499.829 328.275C500.331 329.916 501.448 331.3 502.946 332.138H502.953Z" fill="white"/>
<path d="M500.289 362.966C503.239 365.149 515.759 366.135 515.759 366.135C515.759 366.135 511.131 354.452 508.201 352.268C506.778 351.301 505.035 350.922 503.339 351.21C501.642 351.499 500.123 352.433 499.101 353.816C498.078 355.199 497.63 356.924 497.851 358.63C498.073 360.336 498.946 361.89 500.289 362.966Z" fill="white"/>
<path opacity="0.1" d="M176.269 31.7399H171.687C172.12 31.7597 172.553 31.6914 172.959 31.5392C173.366 31.3871 173.737 31.1542 174.05 30.8546C174.364 30.555 174.614 30.195 174.784 29.7962C174.955 29.3975 175.043 28.9683 175.043 28.5347C175.043 28.101 174.955 27.6718 174.784 27.2731C174.614 26.8744 174.364 26.5143 174.05 26.2147C173.737 25.9152 173.366 25.6823 172.959 25.5301C172.553 25.3779 172.12 25.3096 171.687 25.3294H134.572C134.139 25.3096 133.706 25.3779 133.3 25.5301C132.893 25.6823 132.522 25.9152 132.209 26.2147C131.895 26.5143 131.645 26.8744 131.475 27.2731C131.304 27.6718 131.216 28.101 131.216 28.5347C131.216 28.9683 131.304 29.3975 131.475 29.7962C131.645 30.195 131.895 30.555 132.209 30.8546C132.522 31.1542 132.893 31.3871 133.3 31.5392C133.706 31.6914 134.139 31.7597 134.572 31.7399H139.154C138.303 31.7399 137.486 32.078 136.884 32.6797C136.282 33.2815 135.944 34.0976 135.944 34.9486C135.944 35.7995 136.282 36.6156 136.884 37.2174C137.486 37.8191 138.303 38.1572 139.154 38.1572H132.741C132.307 38.1374 131.875 38.2057 131.468 38.3579C131.062 38.51 130.691 38.7429 130.377 39.0425C130.063 39.3421 129.814 39.7021 129.643 40.1009C129.473 40.4996 129.385 40.9288 129.385 41.3624C129.385 41.7961 129.473 42.2253 129.643 42.624C129.814 43.0227 130.063 43.3828 130.377 43.6824C130.691 43.9819 131.062 44.2148 131.468 44.367C131.875 44.5192 132.307 44.5875 132.741 44.5677H169.855C170.289 44.5875 170.722 44.5192 171.128 44.367C171.534 44.2148 171.905 43.9819 172.219 43.6824C172.533 43.3828 172.782 43.0227 172.953 42.624C173.123 42.2253 173.211 41.7961 173.211 41.3624C173.211 40.9288 173.123 40.4996 172.953 40.1009C172.782 39.7021 172.533 39.3421 172.219 39.0425C171.905 38.7429 171.534 38.51 171.128 38.3579C170.722 38.2057 170.289 38.1374 169.855 38.1572H176.269C177.12 38.1572 177.936 37.8191 178.538 37.2174C179.14 36.6156 179.479 35.7995 179.479 34.9486C179.479 34.0976 179.14 33.2815 178.538 32.6797C177.936 32.078 177.12 31.7399 176.269 31.7399Z" fill="#252223"/>
<path opacity="0.1" d="M340.097 112.288H335.515C335.948 112.308 336.381 112.24 336.788 112.087C337.194 111.935 337.565 111.702 337.879 111.403C338.192 111.103 338.442 110.743 338.613 110.344C338.783 109.946 338.871 109.516 338.871 109.083C338.871 108.649 338.783 108.22 338.613 107.821C338.442 107.423 338.192 107.062 337.879 106.763C337.565 106.463 337.194 106.23 336.788 106.078C336.381 105.926 335.948 105.858 335.515 105.878H298.401C297.967 105.858 297.534 105.926 297.128 106.078C296.722 106.23 296.351 106.463 296.037 106.763C295.723 107.062 295.474 107.423 295.303 107.821C295.132 108.22 295.044 108.649 295.044 109.083C295.044 109.516 295.132 109.946 295.303 110.344C295.474 110.743 295.723 111.103 296.037 111.403C296.351 111.702 296.722 111.935 297.128 112.087C297.534 112.24 297.967 112.308 298.401 112.288H302.982C302.131 112.288 301.315 112.626 300.713 113.228C300.111 113.83 299.772 114.646 299.772 115.497C299.772 116.348 300.111 117.164 300.713 117.766C301.315 118.367 302.131 118.705 302.982 118.705H296.569C296.136 118.686 295.703 118.754 295.297 118.906C294.89 119.058 294.519 119.291 294.205 119.591C293.892 119.89 293.642 120.25 293.472 120.649C293.301 121.048 293.213 121.477 293.213 121.911C293.213 122.344 293.301 122.773 293.472 123.172C293.642 123.571 293.892 123.931 294.205 124.23C294.519 124.53 294.89 124.763 295.297 124.915C295.703 125.067 296.136 125.136 296.569 125.116H333.684C334.117 125.136 334.55 125.067 334.956 124.915C335.362 124.763 335.734 124.53 336.047 124.23C336.361 123.931 336.611 123.571 336.781 123.172C336.952 122.773 337.04 122.344 337.04 121.911C337.04 121.477 336.952 121.048 336.781 120.649C336.611 120.25 336.361 119.89 336.047 119.591C335.734 119.291 335.362 119.058 334.956 118.906C334.55 118.754 334.117 118.686 333.684 118.705H340.097C340.518 118.705 340.936 118.622 341.325 118.461C341.715 118.3 342.069 118.063 342.367 117.766C342.665 117.468 342.901 117.114 343.062 116.725C343.224 116.335 343.307 115.918 343.307 115.497C343.307 115.075 343.224 114.658 343.062 114.269C342.901 113.88 342.665 113.526 342.367 113.228C342.069 112.93 341.715 112.694 341.325 112.532C340.936 112.371 340.518 112.288 340.097 112.288Z" fill="#252223"/>
<path opacity="0.1" d="M619.138 7.10954H614.556C614.989 7.12929 615.422 7.06102 615.828 6.90884C616.235 6.75667 616.606 6.52375 616.92 6.22417C617.233 5.92459 617.483 5.56455 617.654 5.16582C617.824 4.76708 617.912 4.33792 617.912 3.90426C617.912 3.47059 617.824 3.04143 617.654 2.6427C617.483 2.24396 617.233 1.88392 616.92 1.58434C616.606 1.28476 616.235 1.05185 615.828 0.899675C615.422 0.747502 614.989 0.679229 614.556 0.698977H577.441C577.008 0.679229 576.575 0.747502 576.169 0.899675C575.763 1.05185 575.391 1.28476 575.078 1.58434C574.764 1.88392 574.514 2.24396 574.344 2.6427C574.173 3.04143 574.085 3.47059 574.085 3.90426C574.085 4.33792 574.173 4.76708 574.344 5.16582C574.514 5.56455 574.764 5.92459 575.078 6.22417C575.391 6.52375 575.763 6.75667 576.169 6.90884C576.575 7.06102 577.008 7.12929 577.441 7.10954H582.023C581.172 7.10954 580.356 7.44759 579.754 8.04932C579.152 8.65105 578.813 9.46717 578.813 10.3182C578.813 11.1691 579.152 11.9852 579.754 12.587C580.356 13.1887 581.172 13.5268 582.023 13.5268H575.61C575.177 13.507 574.744 13.5753 574.337 13.7275C573.931 13.8796 573.56 14.1126 573.246 14.4121C572.933 14.7117 572.683 15.0717 572.512 15.4705C572.342 15.8692 572.254 16.2984 572.254 16.732C572.254 17.1657 572.342 17.5949 572.512 17.9936C572.683 18.3923 572.933 18.7524 573.246 19.052C573.56 19.3515 573.931 19.5844 574.337 19.7366C574.744 19.8888 575.177 19.9571 575.61 19.9373H612.725C613.158 19.9571 613.591 19.8888 613.997 19.7366C614.403 19.5844 614.774 19.3515 615.088 19.052C615.402 18.7524 615.652 18.3923 615.822 17.9936C615.993 17.5949 616.081 17.1657 616.081 16.732C616.081 16.2984 615.993 15.8692 615.822 15.4705C615.652 15.0717 615.402 14.7117 615.088 14.4121C614.774 14.1126 614.403 13.8796 613.997 13.7275C613.591 13.5753 613.158 13.507 612.725 13.5268H619.138C619.989 13.5268 620.806 13.1887 621.408 12.587C622.01 11.9852 622.348 11.1691 622.348 10.3182C622.348 9.46717 622.01 8.65105 621.408 8.04932C620.806 7.44759 619.989 7.10954 619.138 7.10954Z" fill="#252223"/>
<path d="M469.841 352.042C470.106 352.042 470.36 351.937 470.547 351.749C470.735 351.562 470.84 351.308 470.84 351.043C470.84 350.779 470.735 350.525 470.547 350.337C470.36 350.15 470.106 350.045 469.841 350.045C469.576 350.045 469.322 350.15 469.134 350.337C468.947 350.525 468.842 350.779 468.842 351.043C468.842 351.308 468.947 351.562 469.134 351.749C469.322 351.937 469.576 352.042 469.841 352.042Z" fill="#535461"/>
<g opacity="0.5">
<path opacity="0.5" d="M347.656 294.906L337.979 249.373H338.971L338.818 248.601H339.098L334.09 223.97C334.09 223.97 334.343 198.242 335.562 188.29C336.454 181.027 337.866 171.774 336.834 163.985C336.976 163.771 337.107 163.548 337.227 163.32C337.654 162.491 337.912 161.586 337.986 160.657C338.359 158.48 338.066 156.241 337.147 154.233L347.209 147.949C347.436 147.949 347.669 147.996 347.875 148.009C347.875 147.916 347.782 147.769 347.709 147.576C352.469 147.826 357.186 146.55 361.17 143.934C365.154 141.318 368.198 137.498 369.859 133.031C370.745 134.361 371.84 135.539 373.102 136.519C375.813 138.549 380.082 139.002 382.339 136.479C383.162 135.472 383.718 134.275 383.958 132.998C384.091 132.425 384.184 131.839 384.264 131.26C385.543 124.457 382.739 117.441 379.123 111.476C374.601 104.027 368.6 97.2835 360.975 93.0497C353.35 88.816 343.993 87.2982 335.741 90.1207C327.49 92.9432 319.179 100.605 318.426 109.292C318.053 113.733 318.586 115.79 317.667 120.15C317.207 122.32 318.2 126.547 318.186 128.944C318.106 129.384 318.052 129.828 318.027 130.275C317.893 132.938 318.952 135.454 319.725 138.01C308.843 138.556 280.226 140.76 271.962 149.16C261.679 159.605 236.465 163.34 236.465 163.34L194.476 171.787L179.825 178.005L179.991 178.67L179.698 178.797C179.698 178.797 180.218 180.734 180.964 183.29C177.695 186.248 175.555 190.248 174.91 194.607C174.098 199.127 174.53 204.945 177.394 212.367C177.394 212.367 191.852 238.908 192.851 249.613L211.099 286.019C209.534 289.141 193.897 320.695 191.206 338.355C190.993 339.627 190.849 340.909 190.773 342.196C190.773 342.196 190.673 343.128 190.427 344.679C189.355 351.223 185.965 367.313 177.687 374.835L177.794 374.928L177.554 375.161L177.74 375.321C175.256 380.067 178.846 386.498 178.846 386.498L182.928 404.724L187.497 405.463L192.305 403.506L194.969 408.625C194.969 408.625 215.714 411.954 221.608 411.761C227.502 411.568 216.613 401.582 212.797 398.62C210.679 396.982 209.021 390.252 207.969 384.587C208.524 384.137 209.023 383.62 209.454 383.05C209.454 383.05 206.916 369.736 214.555 351.469C217.812 343.694 221.315 334.754 224.278 327.052C225.87 337.397 227.541 348.055 228.774 355.33C230.565 365.868 230.332 372.299 229.779 375.927C229.677 377.192 229.378 378.434 228.893 379.608C228.918 379.642 228.94 379.678 228.96 379.715C228.925 379.809 228.883 379.9 228.833 379.987C228.873 380.054 228.913 380.114 228.947 380.181C224.778 384.947 229.12 392.722 229.12 392.722L233.202 410.895L237.771 411.634L242.579 409.677L245.243 414.796C245.243 414.796 265.988 418.125 271.882 417.932C277.775 417.739 266.887 407.753 263.064 404.791C260.087 402.481 258.023 390.079 257.257 384.76C257.81 384.707 258.116 384.667 258.116 384.667L258.056 384.301H258.183L255.572 369.044C251.11 365.203 251.729 310.636 251.729 310.636C251.729 310.636 249.405 316.341 249.332 315.882C249.558 314.963 250.398 312.367 252.342 306.835C253.484 303.663 254.329 300.391 254.866 297.063C256.977 284.075 253.041 276.134 253.041 276.134C253.301 273.524 250.551 263.386 247.301 252.588L257.51 232.698C258.93 233.232 260.471 233.358 261.959 233.064L269.691 219.084C269.691 219.084 285.674 209.565 290.249 210.304C294.505 210.97 307.837 208.054 312.992 202.502C313.363 202.096 313.701 201.662 314.004 201.204C318.153 194.847 316.448 234.395 316.448 234.395L314.231 248.095L314.111 248.854L320.724 248.987L336.307 302.415C336.307 302.415 337.286 320.535 354.995 324.562C372.703 328.59 347.656 294.906 347.656 294.906ZM241.214 233.157C240.255 230.201 239.416 227.652 238.783 225.741L242.08 223.172C242.08 223.172 242.492 223.518 243.192 224.07L241.214 233.157Z" fill="url(#paint0_linear)"/>
</g>
<path d="M257.284 378.982C257.284 378.982 259.541 397.994 263.277 400.883C267.013 403.772 277.616 413.471 271.868 413.684C266.121 413.898 245.896 410.636 245.896 410.636L243.278 405.643L238.617 407.547L234.161 406.828L230.165 389.061C230.165 389.061 224.558 379.022 232.45 374.968C240.341 370.914 257.284 378.982 257.284 378.982Z" fill="#3A384D"/>
<path opacity="0.1" d="M238.31 223.112C238.31 223.112 253.994 269.77 253.401 275.761C253.401 275.761 259.148 287.344 252.808 305.351C246.468 323.357 252.142 309.431 252.142 309.431C252.142 309.431 251.543 362.613 255.885 366.361L258.429 381.232C258.429 381.232 233.975 384.135 229.859 376.619C229.859 376.619 233.042 371.047 229.926 352.654C226.809 334.261 220.802 293.734 220.802 293.734L204.526 201.29L238.31 223.112Z" fill="black"/>
<path d="M238.37 222.739C238.37 222.739 254.054 269.424 253.461 275.415C253.461 275.415 259.208 286.998 252.868 305.004C246.528 323.011 252.202 309.085 252.202 309.085C252.202 309.085 251.603 362.274 255.945 366.015L258.489 380.893C258.489 380.893 234.035 383.789 229.919 376.273C229.919 376.273 233.102 370.701 229.986 352.308C226.869 333.915 220.855 293.368 220.855 293.368L204.586 200.918L238.37 222.739Z" fill="#BEC7DE"/>
<path opacity="0.1" d="M208.621 203.341L224.571 293.967C224.571 293.967 230.565 334.514 233.702 352.907C236.838 371.3 233.635 376.872 233.635 376.872C234.834 379.062 237.744 380.36 241.274 381.112C236.319 380.533 231.85 379.182 230.292 376.333C230.292 376.333 233.482 370.761 230.365 352.368C227.248 333.975 221.235 293.428 221.235 293.428L204.958 200.978L208.621 203.341Z" fill="black"/>
<path d="M208.375 372.984C208.375 372.984 210.626 391.996 214.369 394.886C218.111 397.775 228.707 407.474 222.96 407.687C217.212 407.9 196.987 404.638 196.987 404.638L194.37 399.645L189.708 401.556L185.252 400.83L181.257 383.063C181.257 383.063 175.649 373.024 183.534 368.97C191.419 364.916 208.375 372.984 208.375 372.984Z" fill="#3A384D"/>
<path opacity="0.1" d="M238.31 223.112C238.31 223.112 253.994 269.77 253.401 275.761C253.401 275.761 259.148 287.344 252.808 305.351C246.468 323.357 252.142 309.431 252.142 309.431C252.142 309.431 251.543 362.613 255.885 366.361L258.429 381.232C258.429 381.232 233.975 384.135 229.859 376.619C229.859 376.619 233.042 371.047 229.926 352.654C226.809 334.261 220.802 293.734 220.802 293.734L204.526 201.29L238.31 223.112Z" fill="black"/>
<path opacity="0.1" d="M188.609 181.972C188.609 181.972 171.154 188.669 180.544 213.02C180.544 213.02 194.643 238.888 195.622 249.326L213.47 284.941C213.47 284.941 194.436 322.592 193.59 339.58C193.59 339.58 191.046 362.387 180.777 371.76C180.777 371.76 202.867 390.552 211.092 379.701C211.092 379.701 208.621 366.747 216.073 348.92C223.526 331.093 232.363 307.048 232.363 307.048C232.363 307.048 253.734 292.609 239.496 262.906L223.512 196.77L223.253 181.886L210.992 177.625L188.609 181.972Z" fill="black"/>
<path opacity="0.1" d="M187.81 182.219C187.81 182.219 170.355 188.915 179.745 213.266C179.745 213.266 193.837 239.141 194.816 249.579L212.664 285.194C212.664 285.194 193.63 322.838 192.798 339.833C192.798 339.833 190.254 362.633 179.978 372.013C179.978 372.013 202.068 390.805 210.3 379.954C210.3 379.954 207.822 366.993 215.274 349.173C222.727 331.352 231.564 307.274 231.564 307.274C231.564 307.274 252.942 292.836 238.703 263.133L222.72 196.997L222.46 182.112L210.206 177.852L187.81 182.219Z" fill="black"/>
<path d="M187.87 181.852C187.87 181.852 170.415 188.556 179.805 212.9C179.805 212.9 190.161 231.905 193.73 243.908C195.288 249.063 197.294 254.072 199.724 258.879L212.724 284.841C212.724 284.841 193.69 322.492 192.851 339.48C192.851 339.48 190.307 362.287 180.031 371.66C180.031 371.66 202.121 390.452 210.353 379.601C210.353 379.601 207.875 366.647 215.328 348.82C222.78 330.993 231.617 306.922 231.617 306.922C231.617 306.922 252.995 292.483 238.756 262.78L222.773 196.644L222.513 181.759L210.26 177.499L187.87 181.852Z" fill="#BEC7DE"/>
<path opacity="0.1" d="M187.87 181.852L210.28 177.479L213.203 178.497L192.325 182.565C192.325 182.565 174.87 189.261 184.26 213.612C184.26 213.612 194.609 232.618 198.186 244.62C199.744 249.775 201.749 254.785 204.179 259.591L217.186 285.553C217.186 285.553 198.126 323.191 197.307 340.179C197.307 340.179 194.756 362.986 184.487 372.359C184.487 372.359 194.003 380.453 202.867 382.95C193.091 382.75 180.031 371.633 180.031 371.633C190.307 362.26 192.851 339.454 192.851 339.454C193.69 322.465 212.724 284.814 212.724 284.814L199.724 258.852C197.294 254.046 195.288 249.036 193.73 243.881C190.161 231.899 179.805 212.873 179.805 212.873C170.415 188.556 187.87 181.852 187.87 181.852Z" fill="black"/>
<path d="M259.788 229.243L245.889 256.303C245.889 256.303 249.965 292.356 242.179 293.382C234.394 294.407 237.518 253.813 237.518 253.813L245.01 219.244L259.788 229.243Z" fill="#BE7C5E"/>
<path d="M335.755 246.843L345.691 293.734C345.691 293.734 370.079 326.599 352.817 322.672C335.555 318.744 334.603 301.057 334.603 301.057L317.953 243.941L335.755 246.843Z" fill="#BE7C5E"/>
<path d="M345.658 150.246L321.083 165.689L312.313 142.197C312.313 142.197 332.651 143.582 335.022 135.973C337.393 128.364 345.658 150.246 345.658 150.246Z" fill="#BE7C5E"/>
<path d="M333.038 160.011L331.466 153.281L307.245 154.699L297.488 193.848L315.662 194.5L325.838 178.637L331.386 163.167L333.038 160.011Z" fill="#BE7C5E"/>
<path opacity="0.1" d="M324.66 152.948L326.658 141.665C326.658 141.665 281.831 142.224 271.808 152.402C261.786 162.581 237.211 166.229 237.211 166.229L196.281 174.457L181.969 180.521C181.969 180.521 186.005 195.632 187.737 196.677C189.468 197.722 208.794 181.806 208.794 181.806L216.12 183.75L192.265 208.819L236.292 252.089L237.105 228.244L242.746 223.837C242.746 223.837 256.151 235.154 262.132 233.436L269.671 219.81C269.671 219.81 285.254 210.53 289.71 211.249C293.859 211.915 306.858 209.059 311.88 203.647C312.232 203.268 312.553 202.86 312.839 202.429C316.888 196.231 315.223 234.781 315.223 234.781L312.945 248.874L337.233 249.373L332.358 225.368C332.358 225.368 332.605 200.292 333.79 190.586C334.976 180.88 337.12 167.533 332.771 159.212L324.22 167.347L309.342 191.219L314.99 170.436L324.66 152.948Z" fill="black"/>
<path d="M324.786 152.203L322.662 140.626C322.662 140.626 281.978 141.478 271.955 151.657C261.932 161.835 237.325 165.476 237.325 165.476L196.394 173.711L182.142 179.782C182.142 179.782 186.178 194.893 187.91 195.932C189.641 196.97 208.974 181.067 208.974 181.067L216.3 183.011L192.445 208.08L236.472 251.35L237.285 227.499L242.945 223.085C242.945 223.085 256.351 234.402 262.332 232.691L269.87 219.064C269.87 219.064 285.368 209.785 289.849 210.524C293.998 211.189 306.998 208.327 312.02 202.915C312.372 202.535 312.693 202.128 312.979 201.696C317.028 195.499 315.363 234.056 315.363 234.056L313.085 248.148L337.373 248.647L332.498 224.643C332.498 224.643 332.745 199.56 333.93 189.861C335.115 180.162 337.26 166.801 332.911 158.487L324.36 166.588L309.462 190.44L315.11 169.657L324.786 152.203Z" fill="#7FAFF2"/>
<path opacity="0.1" d="M273.473 166.941C273.473 166.941 249.225 187.384 246.688 198.395L273.473 166.941Z" fill="black"/>
<path opacity="0.1" d="M299.946 184.562C299.946 184.562 281.298 198.674 277.969 207.648L299.946 184.562Z" fill="black"/>
<path opacity="0.1" d="M245.489 205.81C245.489 205.81 243.738 214.278 243.392 218.791L245.489 205.81Z" fill="black"/>
<path opacity="0.1" d="M236.625 225.308C236.625 225.308 208.695 200.245 204.785 200.758L236.625 225.308Z" fill="black"/>
<path opacity="0.1" d="M335.315 136.399C337.586 129.117 345.258 148.861 345.904 150.558C345.174 150.517 344.447 150.437 343.726 150.319C340.814 149.853 338.027 148.799 335.535 147.22C333.043 145.642 330.9 143.573 329.235 141.139C332.225 140.2 334.609 138.716 335.315 136.399Z" fill="black"/>
<path d="M346.91 150.172C358.952 150.172 368.714 140.415 368.714 128.378C368.714 116.341 358.952 106.583 346.91 106.583C334.868 106.583 325.106 116.341 325.106 128.378C325.106 140.415 334.868 150.172 346.91 150.172Z" fill="#BE7C5E"/>
<path opacity="0.1" d="M364.618 131.52C366.329 134.336 367.888 137.391 370.532 139.362C373.176 141.332 377.338 141.778 379.536 139.322C380.335 138.339 380.875 137.172 381.107 135.927C382.719 129.063 379.902 121.947 376.246 115.896C371.837 108.633 365.983 102.063 358.558 97.9226C351.132 93.782 342.002 92.3108 333.957 95.0668C325.912 97.8227 319.305 105.185 318.639 113.653C318.273 117.98 319.365 122.393 318.466 126.647C318 128.864 316.994 130.974 316.881 133.237C316.668 137.438 319.545 141.345 319.285 145.546C319.126 148.135 317.8 150.485 316.988 152.955C314.99 158.906 316.069 165.383 315.656 171.641C315.243 177.898 312.506 184.915 306.512 186.765C313.138 190.094 322.276 186.592 324.973 179.682C325.792 177.572 326.092 175.229 327.337 173.338C329.441 170.143 333.817 168.878 335.582 165.483C337.346 162.088 335.815 157.954 333.883 154.659C331.952 151.364 329.541 148.049 329.501 144.234C329.515 142.372 330.096 140.558 331.167 139.033C332.238 137.509 333.747 136.346 335.495 135.7C337.313 135.068 339.278 135.035 341.189 134.822C345.931 134.213 350.46 132.485 354.402 129.782C359.523 126.434 360.895 125.395 364.618 131.52Z" fill="black"/>
<path d="M364.758 130.568C366.469 133.39 368.028 136.439 370.671 138.416C373.315 140.393 377.478 140.833 379.675 138.376C380.473 137.393 381.013 136.226 381.247 134.981C382.859 128.118 380.042 121.002 376.385 114.951C371.977 107.682 366.123 101.118 358.697 96.9773C351.272 92.8367 342.141 91.3722 334.096 94.1215C326.052 96.8708 317.953 104.346 317.241 112.814C316.875 117.141 317.401 119.145 316.502 123.392C316.035 125.608 317.121 130.049 317.008 132.299C316.795 136.499 319.672 140.407 319.412 144.607C319.252 147.197 317.927 149.547 317.114 152.01C315.116 157.968 316.195 164.445 315.782 170.702C315.369 176.96 312.632 183.969 306.639 185.82C313.265 189.148 322.402 185.647 325.099 178.737C325.918 176.633 326.218 174.29 327.463 172.4C329.568 169.204 333.943 167.94 335.708 164.545C337.473 161.15 335.941 157.009 334.017 153.714C332.092 150.419 329.668 147.11 329.628 143.289C329.643 141.428 330.225 139.615 331.296 138.092C332.366 136.569 333.875 135.407 335.622 134.762C337.44 134.129 339.404 134.096 341.316 133.883C346.057 133.271 350.585 131.544 354.528 128.844C359.676 125.482 361.048 124.45 364.758 130.568Z" fill="#723647"/>
<path d="M319.509 143.184L328.759 144.679C329.478 144.795 330.155 144.308 330.271 143.591C330.386 142.874 329.898 142.199 329.179 142.083L319.928 140.589C319.21 140.472 318.533 140.959 318.417 141.676C318.301 142.393 318.79 143.068 319.509 143.184Z" fill="#252A62"/>
<path d="M300.445 327.152C300.598 337.577 309.396 345.791 319.825 345.791H321.277C322.559 345.787 323.792 346.284 324.713 347.176C325.412 347.829 325.897 348.679 326.105 349.612C326.204 349.988 326.253 350.375 326.251 350.764V369.17C326.244 372.709 327.257 376.176 329.168 379.155C331.949 383.376 333.456 388.308 333.51 393.361C333.51 394.541 333.745 395.709 334.202 396.797C334.658 397.885 335.327 398.871 336.169 399.698C337.011 400.524 338.009 401.175 339.105 401.612C340.202 402.049 341.374 402.263 342.554 402.241C347.429 402.155 351.252 397.961 351.252 393.082V388.482L353.676 388.761V393.374C353.677 394.553 353.912 395.719 354.369 396.805C354.825 397.892 355.493 398.876 356.335 399.702C357.176 400.527 358.173 401.177 359.268 401.613C360.363 402.049 361.535 402.263 362.713 402.241C367.595 402.155 371.417 397.961 371.417 393.082V390.752C373.835 391.763 387.547 391.763 391.35 390.752L392.382 390.672V393.334C392.378 394.516 392.611 395.687 393.065 396.778C393.52 397.869 394.188 398.859 395.031 399.688C395.873 400.518 396.873 401.171 397.971 401.609C399.069 402.048 400.244 402.263 401.426 402.241C406.301 402.155 410.123 397.961 410.123 393.082V389.26L410.929 389.187V393.381C410.932 394.559 411.169 395.725 411.626 396.811C412.084 397.896 412.753 398.88 413.595 399.705C414.436 400.529 415.434 401.178 416.529 401.614C417.624 402.049 418.795 402.263 419.973 402.241C422.123 402.169 424.176 401.332 425.763 399.881C427.35 398.43 428.367 396.46 428.631 394.326C428.681 393.913 428.708 393.498 428.711 393.082V373.83C428.718 367.217 426.501 360.793 422.417 355.59C421.71 354.669 421.313 353.547 421.286 352.386C421.258 351.226 421.601 350.086 422.264 349.133C426.779 342.523 433.459 331.366 433.239 323.457C433.285 321.313 432.533 319.227 431.128 317.606C431.041 317.506 430.948 317.413 430.862 317.32C424.362 310.516 412.92 315.868 413.913 325.221C414.25 328.354 414.025 331.521 413.247 334.574C412.796 336.297 412.188 337.975 411.429 339.587C410.669 341.204 409.419 342.541 407.857 343.41C406.295 344.278 404.5 344.634 402.724 344.426C401.518 344.279 400.304 344.206 399.088 344.207H361.794C359.605 344.208 357.471 343.523 355.691 342.249C353.911 340.975 352.575 339.176 351.871 337.104C351.492 336.019 351.301 334.878 351.305 333.729V304.705C351.305 303.949 351.154 303.2 350.859 302.504C350.565 301.808 350.133 301.177 349.59 300.651C349.047 300.124 348.404 299.712 347.699 299.439C346.994 299.166 346.241 299.037 345.485 299.06C344.746 299.087 344.021 299.261 343.352 299.573C342.683 299.886 342.083 300.329 341.589 300.877C340.579 301.989 340.019 303.436 340.017 304.938C340.018 305.331 339.941 305.72 339.791 306.083C339.641 306.446 339.421 306.776 339.143 307.053C338.865 307.331 338.535 307.551 338.172 307.701C337.809 307.851 337.42 307.928 337.027 307.927H319.398C316.886 307.927 314.398 308.426 312.08 309.395C309.762 310.365 307.66 311.785 305.897 313.574C304.133 315.363 302.743 317.485 301.807 319.816C300.871 322.147 300.408 324.641 300.445 327.152Z" fill="#F3AD55"/>
<path d="M411.236 395.585C411.735 397.517 412.872 399.225 414.462 400.433C416.052 401.641 418.003 402.278 420 402.241C422.149 402.169 424.203 401.332 425.79 399.881C427.377 398.43 428.394 396.46 428.657 394.326C423.223 392.882 415.778 391.883 411.236 395.585Z" fill="#FBDCA3"/>
<path d="M392.655 395.585C393.156 397.518 394.294 399.226 395.885 400.434C397.476 401.641 399.428 402.278 401.426 402.241C403.569 402.161 405.613 401.32 407.192 399.87C408.772 398.419 409.782 396.454 410.043 394.326C404.676 392.882 397.25 391.883 392.655 395.585Z" fill="#FBDCA3"/>
<path d="M353.962 395.585C354.462 397.517 355.599 399.225 357.189 400.433C358.779 401.641 360.73 402.278 362.726 402.241C364.876 402.169 366.929 401.332 368.516 399.881C370.103 398.43 371.12 396.46 371.384 394.326C365.95 392.882 358.518 391.883 353.962 395.585Z" fill="#FBDCA3"/>
<path d="M333.783 395.585C334.283 397.518 335.421 399.227 337.012 400.435C338.604 401.643 340.556 402.279 342.554 402.241C344.697 402.161 346.742 401.32 348.321 399.87C349.9 398.419 350.911 396.454 351.172 394.326C345.804 392.882 338.359 391.883 333.783 395.585Z" fill="#FBDCA3"/>
<path d="M413.194 334.574C419.46 332.058 427.106 327.451 433.173 323.457C433.219 321.313 432.466 319.227 431.062 317.606C430.975 317.506 430.882 317.413 430.795 317.32C424.295 310.516 412.854 315.868 413.846 325.221C414.188 328.353 413.967 331.52 413.194 334.574Z" fill="#FBDCA3"/>
<path d="M405.608 344.26C405.608 344.26 388.353 365.975 360.123 344.207L405.608 344.26Z" fill="#FBDCA3"/>
<path d="M351.252 303.899C351.252 303.899 340.77 317.606 351.252 334.521V303.899Z" fill="#FBDCA3"/>
<path d="M326.251 350.657C326.251 350.657 335.488 362.12 326.371 371.24L326.251 350.657Z" fill="#FBDCA3"/>
<path opacity="0.1" d="M325.446 348.234C326.112 348.9 325.898 349.499 326.112 350.444L356.08 342.596C354.468 341.351 352.464 339.88 351.805 337.936C348.222 340.699 341.116 345.372 325.446 348.234Z" fill="black"/>
<path d="M324.713 347.202C325.412 347.856 325.897 348.705 326.105 349.639L355.334 342.023C353.703 340.766 352.479 339.054 351.818 337.104C348.222 339.893 340.383 344.327 324.713 347.202Z" fill="#383F4D"/>
<path opacity="0.1" d="M350.719 338.715C350.719 338.715 341.575 345.591 326.251 347.722L350.719 338.715Z" fill="black"/>
<path d="M350.719 337.909C350.719 337.909 341.575 344.786 326.251 346.916L350.719 337.909Z" fill="#F3AD55"/>
<path opacity="0.1" d="M327.863 338.562C327.863 338.562 312.546 343.401 308.51 328.084L327.863 338.562Z" fill="black"/>
<path d="M327.863 337.756C327.863 337.756 312.546 342.596 308.51 327.278L327.863 337.756Z" fill="#FBDCA3"/>
<path d="M300.445 328.084C301.335 328.084 302.057 326.82 302.057 325.261C302.057 323.703 301.335 322.439 300.445 322.439C299.555 322.439 298.833 323.703 298.833 325.261C298.833 326.82 299.555 328.084 300.445 328.084Z" fill="#383F4D"/>
<path opacity="0.1" d="M422.624 383.303L419.4 357.507C419.4 357.507 429.077 372.818 422.624 383.303Z" fill="black"/>
<path d="M418.594 357.507C418.594 357.507 428.271 372.818 421.818 383.303L418.594 357.507Z" fill="#FBDCA3"/>
<defs>
<linearGradient id="paint0_linear" x1="168.847" y1="232.176" x2="370.512" y2="264.781" gradientUnits="userSpaceOnUse">
<stop stop-color="#808080" stop-opacity="0.25"/>
<stop offset="0.54" stop-color="#808080" stop-opacity="0.12"/>
<stop offset="1" stop-color="#808080" stop-opacity="0.1"/>
</linearGradient>
</defs>
</svg>
