<svg width="265" height="122" viewBox="0 0 265 122" fill="none" xmlns="http://www.w3.org/2000/svg">
<path d="M134.494 69.2109L139.963 42.4531H146.091L137.888 78H131.979L125.217 52.0479L118.308 78H112.375L104.172 42.4531H110.3L115.817 69.1621L122.604 42.4531H127.78L134.494 69.2109ZM160.886 78.4883C157.126 78.4883 154.074 77.3083 151.73 74.9482C149.403 72.5719 148.239 69.4144 148.239 65.4756V64.7432C148.239 62.1064 148.744 59.7546 149.753 57.6875C150.778 55.6042 152.211 53.9847 154.05 52.8291C155.889 51.6735 157.94 51.0957 160.202 51.0957C163.799 51.0957 166.574 52.2432 168.527 54.5381C170.497 56.833 171.481 60.0801 171.481 64.2793V66.6719H154.221C154.4 68.8529 155.124 70.5781 156.394 71.8477C157.679 73.1172 159.291 73.752 161.228 73.752C163.946 73.752 166.159 72.6533 167.868 70.4561L171.066 73.5078C170.008 75.0866 168.592 76.3154 166.818 77.1943C165.061 78.057 163.083 78.4883 160.886 78.4883ZM160.178 55.8564C158.55 55.8564 157.232 56.4261 156.223 57.5654C155.23 58.7048 154.595 60.2917 154.318 62.3262H165.622V61.8867C165.492 59.901 164.963 58.4036 164.035 57.3945C163.107 56.3691 161.822 55.8564 160.178 55.8564ZM191.232 42.4531H197.385V67.3799C197.385 70.7816 196.319 73.4834 194.187 75.4854C192.071 77.4873 189.271 78.4883 185.788 78.4883C182.077 78.4883 179.213 77.5524 177.194 75.6807C175.176 73.8089 174.167 71.2048 174.167 67.8682H180.319C180.319 69.7562 180.783 71.1803 181.711 72.1406C182.655 73.0846 184.014 73.5566 185.788 73.5566C187.448 73.5566 188.767 73.0114 189.743 71.9209C190.736 70.8141 191.232 69.2923 191.232 67.3555V42.4531ZM202.78 64.5479C202.78 61.96 203.293 59.6325 204.318 57.5654C205.344 55.4821 206.784 53.887 208.64 52.7803C210.495 51.6572 212.627 51.0957 215.036 51.0957C218.601 51.0957 221.49 52.2432 223.703 54.5381C225.933 56.833 227.137 59.8766 227.316 63.6689L227.341 65.0605C227.341 67.6647 226.836 69.9922 225.827 72.043C224.834 74.0938 223.402 75.6807 221.53 76.8037C219.675 77.9268 217.526 78.4883 215.085 78.4883C211.358 78.4883 208.371 77.2513 206.125 74.7773C203.895 72.2871 202.78 68.9749 202.78 64.8408V64.5479ZM208.713 65.0605C208.713 67.7786 209.274 69.9108 210.397 71.457C211.521 72.987 213.083 73.752 215.085 73.752C217.087 73.752 218.641 72.9707 219.748 71.4082C220.871 69.8457 221.433 67.5589 221.433 64.5479C221.433 61.8786 220.855 59.7627 219.699 58.2002C218.56 56.6377 217.006 55.8564 215.036 55.8564C213.099 55.8564 211.561 56.6296 210.422 58.1758C209.283 59.7057 208.713 62.0007 208.713 65.0605ZM241.208 69.5039L246.579 51.584H252.902L242.404 82.0039C240.793 86.4473 238.059 88.6689 234.201 88.6689C233.339 88.6689 232.386 88.5225 231.345 88.2295V83.6396L232.468 83.7129C233.965 83.7129 235.088 83.4362 235.837 82.8828C236.602 82.3457 237.204 81.4342 237.644 80.1484L238.498 77.8779L229.221 51.584H235.617L241.208 69.5039Z" fill="white"/>
<path d="M24.9655 93.5175C21.146 93.5175 18.5066 91.2221 17.0928 88.9178C15.6796 86.6135 15.3939 83.7915 16.3164 81.2508C17.1926 79.0427 17.0184 76.5561 15.8411 74.4927L15.5611 74.0264C9.01368 74.8636 4.06459 80.361 3.92135 86.9549C3.77736 93.5491 8.67877 100.621 22.0964 100.621L24.9655 93.5175Z" fill="#EA8857"/>
<path d="M81.0402 98.2252V100.621H21.1457V98.2234C21.1457 94.9852 23.7708 92.3601 27.0089 92.3601H29.9795L27.9775 81.6132C27.137 77.1063 29.0722 72.7014 32.6087 70.2021C33.7684 69.382 35.1006 68.7678 36.5627 68.4208L38.7003 67.9143H63.4837L65.6212 68.4208C67.0852 68.7678 68.4174 69.382 69.5771 70.2021C73.1118 72.7032 75.047 77.1081 74.2065 81.6132L72.2044 92.3601H75.1751C78.4141 92.3601 81.0402 94.9861 81.0402 98.2252Z" fill="#F7AA74"/>
<path d="M81.0402 98.2252V100.621H76.2308C76.6316 100.621 76.9582 100.294 76.9582 99.8933V98.2252C76.9582 94.9859 74.3323 92.3601 71.093 92.3601H68.1224L70.1245 81.6132C70.965 77.1081 69.0297 72.7032 65.4951 70.2021C64.3354 69.382 63.0032 68.7678 61.5392 68.4208L59.4017 67.9143H63.4837L65.6212 68.4208C67.0852 68.7678 68.4174 69.382 69.5771 70.2021C73.1118 72.7032 75.047 77.1081 74.2065 81.6132L72.2045 92.3601H75.1751C78.4141 92.3601 81.0402 94.9861 81.0402 98.2252Z" fill="#EA8857"/>
<path d="M38.6999 67.9148V100.621H42.8302C43.9713 100.621 45.0048 100.159 45.7525 99.4113C46.5003 98.6636 46.9623 97.6319 46.9623 96.4908V82.3633C46.9623 80.0829 48.8103 78.233 51.0926 78.233C52.2337 78.233 53.2653 78.695 54.0131 79.4428C54.7608 80.1905 55.2228 81.2222 55.2228 82.3633V96.4908C55.2228 98.7712 57.0727 100.621 59.3531 100.621H63.4834V67.9148H38.6999Z" fill="#FFC599"/>
<path d="M69.5771 70.2021C64.2426 73.4863 57.8969 75.3937 51.0929 75.3937C44.2889 75.3937 37.9432 73.4863 32.6087 70.2021C33.7684 69.382 35.1006 68.7678 36.5628 68.4208L38.7003 67.9143H63.4837L65.6212 68.4208C67.0852 68.7678 68.4174 69.382 69.5771 70.2021Z" fill="#EA8857"/>
<path d="M63.4834 67.9148V73.1769C59.6389 74.6093 55.4603 75.3942 51.0926 75.3942C46.7248 75.3942 42.5463 74.6074 38.6999 73.175V67.9148H63.4834Z" fill="#F7AA74"/>
<path d="M77.3736 19.2572V52.4219C77.3736 54.1642 76.6815 55.8359 75.4495 57.068L66.8772 65.5679C62.7061 69.7037 57.0711 72.0249 51.1985 72.0249C51.1243 72.0249 51.0501 72.0249 50.9758 72.0212C48.1629 71.9952 45.4076 71.4349 42.8433 70.3976C40.2123 69.3326 37.7853 67.7647 35.7072 65.7534L26.736 57.068C25.5058 55.8359 24.8119 54.1642 24.8119 52.4219V19.324L35.8705 11.2824C35.8927 11.2731 35.915 11.2639 35.9373 11.2564C45.6952 7.38593 56.5645 7.39335 66.3168 11.2787L77.3736 19.2572Z" fill="#FFC599"/>
<path d="M77.3736 19.2572V52.4219C77.3736 54.1642 76.6815 55.8359 75.4495 57.068L66.8772 65.5679C66.3206 66.1208 65.738 66.6403 65.1312 67.1246C61.1976 70.2826 56.2862 72.0249 51.1985 72.0249C51.1243 72.0249 51.0501 72.0249 50.9758 72.0212V37.541C50.9758 37.541 53.1263 23.4728 48.2409 20.3724C44.7712 18.1699 41.9341 21.3558 38.5405 19.4483C33.9204 16.8507 35.8705 11.3251 35.8705 11.3251L35.9373 11.2564C45.6952 7.38593 56.5645 7.39335 66.3169 11.2787L71.8072 15.2401L77.3736 19.2572Z" fill="#FFECE1"/>
<path d="M77.3736 19.2572V52.4219C77.3736 54.1642 76.6815 55.8359 75.4495 57.068L66.8772 65.5679C66.3206 66.1208 65.738 66.6403 65.1312 67.1246C66.5395 64.7366 69.6066 59.4133 70.5047 56.8601C71.7571 53.2995 71.8072 52.3087 71.8072 50.5664V15.2401L77.3736 19.2572Z" fill="#FFD2BB"/>
<path d="M54.8104 54.2196V56.136C54.8104 58.189 53.146 59.8534 51.0929 59.8534C49.0399 59.8534 47.3755 58.189 47.3755 56.136V54.2196L51.0927 52.3642L54.8104 54.2196Z" fill="#FF2C2C"/>
<path d="M55.8806 38.3086C52.7716 37.2807 49.4143 37.2807 46.3055 38.3086L51.0931 43.0963L55.8806 38.3086Z" fill="#4A555B"/>
<path d="M31.3407 8.49383C32.146 8.47324 32.8609 8.4827 33.4944 8.51703C35.8642 8.64561 36.7554 11.7298 34.801 13.0761C32.8639 14.4109 30.7869 16.9134 30.6989 21.5231C30.533 30.2381 26.3432 54.4816 20.1398 52.5143C15.3451 50.9935 24.5323 43.2724 14.1513 32.9986C3.7718 22.7249 22.5825 8.72002 31.3407 8.49383Z" fill="#EA8857"/>
<path d="M70.8455 8.49382C79.6037 8.71982 98.4144 22.7249 88.0346 32.9986C77.6538 43.2724 86.841 50.9935 82.0461 52.5143C75.8427 54.4816 71.6526 30.2381 71.487 21.5231C71.399 16.9132 69.3222 14.4109 67.3849 13.0761C65.4305 11.7298 66.3219 8.6456 68.6915 8.51701C69.3253 8.48287 70.0402 8.47322 70.8455 8.49382Z" fill="#EA8857"/>
<path d="M39.4705 32.1212C39.4705 30.8398 40.5138 29.7974 41.7963 29.7974C43.0788 29.7974 44.1221 30.8398 44.1221 32.1212C44.1221 32.8892 44.7452 33.5117 45.5137 33.5117C46.2823 33.5117 46.9053 32.8892 46.9053 32.1212C46.9053 29.3064 44.6134 27.0164 41.7963 27.0164C38.9791 27.0164 36.6873 29.3064 36.6873 32.1212C36.6873 32.8892 37.3103 33.5117 38.0789 33.5117C38.8474 33.5117 39.4705 32.8892 39.4705 32.1212Z" fill="black"/>
<path d="M60.3896 27.0164C57.5724 27.0164 55.2805 29.3064 55.2805 32.1212C55.2805 32.8892 55.9036 33.5117 56.6721 33.5117C57.4407 33.5117 58.0637 32.8892 58.0637 32.1212C58.0637 30.8398 59.1071 29.7974 60.3896 29.7974C61.6721 29.7974 62.7154 30.8398 62.7154 32.1212C62.7154 32.8892 63.3385 33.5117 64.107 33.5117C64.8755 33.5117 65.4986 32.8892 65.4986 32.1212C65.4984 29.3064 63.2065 27.0164 60.3896 27.0164Z" fill="black"/>
<path d="M91.603 22.0489C89.6446 17.1099 85.0575 13.4366 82.4975 11.6865C78.4492 8.91926 74.1067 7.21742 70.8808 7.1343C70.0673 7.11352 69.3055 7.12168 68.616 7.15897C67.1264 7.23969 65.8699 8.11695 65.2763 9.44473C56.0697 6.18393 46.1169 6.18522 36.911 9.44844C36.3182 8.11862 35.0606 7.23987 33.5691 7.15897C32.8804 7.12205 32.1187 7.1137 31.3045 7.1343C28.0792 7.21742 23.7366 8.91944 19.6884 11.6867C17.1284 13.4366 12.5413 17.11 10.5829 22.0489C8.8337 26.4603 9.72915 30.5919 13.1725 33.9974C14.284 35.0966 15.2119 36.221 15.9303 37.3397C16.3456 37.9859 17.2065 38.1739 17.8531 37.7588C18.5 37.3441 18.6879 36.4839 18.2727 35.8377C17.444 34.5476 16.3868 33.2632 15.1304 32.0208C12.5053 29.4244 11.8457 26.4141 13.1705 23.0733C15.9767 15.9962 26.1946 10.0479 31.3762 9.91435C32.1165 9.89523 32.8038 9.90266 33.4188 9.93568C34.1564 9.97576 34.382 10.5764 34.4336 10.7597C34.4839 10.9378 34.6019 11.5512 34.0113 11.9578C31.9213 13.3967 29.4088 16.2233 29.3077 21.5166C29.2431 24.9075 28.4926 31.5163 26.9974 38.0139C24.7451 47.8025 22.4773 50.3105 21.6069 50.9345C21.1121 51.2891 20.8002 51.2592 20.5604 51.1835C19.9919 51.0033 19.839 50.9549 20.297 48.3229C20.5822 46.6829 20.9371 44.6419 20.6497 42.2516C20.558 41.4892 19.8656 40.9445 19.1021 41.0371C18.3391 41.1285 17.7947 41.821 17.8863 42.5834C18.125 44.5682 17.822 46.3099 17.5546 47.8468C17.1653 50.0854 16.6807 52.8716 19.719 53.8344C20.0366 53.9352 20.4209 54.0122 20.8532 54.0122C21.5476 54.0122 22.3656 53.8133 23.2292 53.1943C23.3006 53.1431 23.3719 53.0893 23.4427 53.0328C23.5843 54.9304 24.3918 56.6954 25.7528 58.0552C25.758 58.0604 25.7634 58.0658 25.7688 58.0708L34.7394 66.7505C34.942 66.9464 35.1474 67.1385 35.3558 67.3265C29.2175 69.2469 25.4142 75.4592 26.6102 81.8728L28.3055 90.9649H27.0097C25.8354 90.9649 24.7252 91.2453 23.7428 91.7424L23.7481 91.6982C21.4715 91.4173 19.478 90.1355 18.279 88.1815C17.0839 86.2327 16.8432 83.8835 17.6179 81.7338C18.6465 79.1241 18.4398 76.2321 17.0495 73.7959C17.0445 73.787 17.0391 73.7781 17.0339 73.7692L16.754 73.3029C16.4697 72.8294 15.9318 72.5691 15.3839 72.639C11.8869 73.0862 8.66244 74.7747 6.30451 77.3933C3.94658 80.0119 2.60601 83.3935 2.52956 86.915C2.46814 89.7285 3.06913 93.7708 6.28132 97.0511C9.49759 100.335 14.4984 102 21.1458 102H81.04C81.8085 102 82.4316 101.377 82.4316 100.609V98.2141C82.4316 94.2167 79.1768 90.9646 75.1762 90.9646H73.8803L75.5757 81.8724C76.7615 75.5128 73.032 69.3511 66.9848 67.3754C67.2813 67.1094 67.5723 66.8351 67.8573 66.5529L76.4329 58.0552C77.7939 56.6961 78.6016 54.9312 78.7431 53.0328C78.8871 53.147 79.0326 53.251 79.1792 53.3449C79.8701 53.7878 80.601 54.012 81.3361 54.012C81.7135 54.012 82.0921 53.9528 82.4669 53.834C85.505 52.8712 85.0204 50.0852 84.6311 47.8464C84.0351 44.4199 83.2189 39.7271 89.0135 33.9972C92.4567 30.5919 93.3522 26.4603 91.603 22.0489ZM19.7542 98.2141V99.1919C14.587 98.9867 10.7279 97.6148 8.27112 95.1058C5.73544 92.5165 5.26267 89.2551 5.31239 86.9749C5.37437 84.119 6.46167 81.3764 8.37392 79.2527C10.0806 77.3573 12.3467 76.0627 14.8304 75.5486C15.621 77.1706 15.6947 79.0354 15.0226 80.7289C15.0176 80.7415 15.0126 80.7543 15.008 80.7671C13.9349 83.7223 14.2622 86.9542 15.9062 89.6344C17.1425 91.649 18.9944 93.1427 21.1644 93.9237C20.2784 95.126 19.7542 96.61 19.7542 98.2141ZM47.6254 99.219C48.0887 98.412 48.3539 97.4774 48.3539 96.4822V82.3669C48.3539 80.8578 49.5826 79.6301 51.0929 79.6301C52.6033 79.6301 53.832 80.8578 53.832 82.3669V96.4822C53.832 97.4774 54.0971 98.4119 54.5604 99.219H47.6254ZM62.0933 99.219H59.3542C57.8439 99.219 56.6152 97.9912 56.6152 96.4822V82.3669C56.6152 79.3245 54.1379 76.8493 51.0929 76.8493C48.0479 76.8493 45.5707 79.3245 45.5707 82.3669V96.4822C45.5707 97.9912 44.342 99.219 42.8316 99.219H40.0926V81.0033C40.0926 80.2353 39.4695 79.6128 38.701 79.6128C37.9325 79.6128 37.3094 80.2353 37.3094 81.0033V99.219H22.5375V98.2141C22.5375 95.75 24.5438 93.7455 27.0097 93.7455H29.9805C30.3941 93.7455 30.7865 93.5617 31.0509 93.2436C31.3153 92.9256 31.4244 92.5068 31.3485 92.1005L29.3463 81.3633C28.3709 76.1316 31.6456 71.071 36.8097 69.8067L37.3094 69.7475V74.5277C37.3094 75.2957 37.9325 75.9182 38.701 75.9182C39.4695 75.9182 40.0926 75.2957 40.0926 74.5277V70.6507C43.4755 72.4513 47.2696 73.4076 51.1976 73.4076C55.051 73.4076 58.7668 72.4917 62.0933 70.7635V99.219ZM72.8396 81.3631L70.8373 92.1003C70.7615 92.5066 70.8707 92.9256 71.135 93.2435C71.3992 93.5613 71.7916 93.7454 72.2054 93.7454H75.1762C77.6421 93.7454 79.6484 95.75 79.6484 98.2139V99.2188H64.8765V69.751L65.38 69.8074C70.542 71.0734 73.8148 76.1327 72.8396 81.3631ZM87.0554 32.0208C80.2277 38.7725 81.2675 44.7508 81.8887 48.3227C82.3465 50.9547 82.1937 51.0031 81.6252 51.1833C81.4053 51.2531 81.1217 51.2863 80.6815 51.0041C78.6429 49.6975 76.8999 44.3396 76.2451 42.0965C75.0511 38.0063 74.0083 32.7687 73.384 27.7268C73.2895 26.9646 72.5943 26.4238 71.8321 26.5176C71.0693 26.6119 70.5275 27.3062 70.6219 28.0683C71.2637 33.2513 72.3395 38.6483 73.5734 42.8751C74.3368 45.49 75.1363 47.6262 75.9822 49.303V52.4291C75.9822 53.8116 75.4435 55.1112 74.4691 56.0842L65.8973 64.5781C61.9613 68.4783 56.7408 70.6262 51.1976 70.6262C45.7477 70.6262 40.5904 68.5401 36.6756 64.7522L27.7135 56.0808C26.7397 55.1039 26.2037 53.8075 26.2037 52.4291V49.2954C27.488 46.7586 28.6607 43.1968 29.71 38.6368C31.2496 31.9458 32.0232 25.0991 32.0903 21.5693C32.1388 19.0319 32.8451 16.99 34.1944 15.4744C34.5267 17.3887 35.5456 19.3578 37.8575 20.6575C39.9432 21.83 41.8197 21.4901 43.4757 21.1902C44.9812 20.9176 46.17 20.7024 47.4954 21.5435C50.281 23.3114 50.3767 31.0363 49.7524 36.206C48.4337 36.311 47.1272 36.5715 45.8685 36.9873C45.41 37.1389 45.0628 37.5169 44.9513 37.9865C44.8398 38.4559 44.9799 38.9496 45.3213 39.2907L49.7011 43.6672V50.5031C49.7011 51.7845 48.6578 52.8269 47.3753 52.8269H43.6644C42.3819 52.8269 41.3385 51.7845 41.3385 50.5031C41.3385 49.7351 40.7155 49.1126 39.9469 49.1126C39.1784 49.1126 38.5553 49.7351 38.5553 50.5031C38.5553 53.3178 40.8472 55.6079 43.6644 55.6079H45.9837V56.1322C45.9837 58.947 48.2756 61.237 51.0927 61.237C53.9099 61.237 56.2018 58.947 56.2018 56.1322V55.6079H58.5211C61.3383 55.6079 63.6301 53.3178 63.6301 50.5031C63.6301 49.7351 63.0071 49.1126 62.2385 49.1126C61.47 49.1126 60.8469 49.7351 60.8469 50.5031C60.8469 51.7845 59.8036 52.8269 58.5211 52.8269H54.8102C53.5277 52.8269 52.4843 51.7845 52.4843 50.5031V43.6672L56.8644 39.2907C57.2058 38.9495 57.3459 38.4559 57.2343 37.9865C57.1228 37.517 56.7757 37.1389 56.3172 36.9873C55.0955 36.5837 53.829 36.3266 52.55 36.2158C52.9992 32.2006 53.6154 22.1332 48.9873 19.196C46.7435 17.7719 44.6561 18.1502 42.9791 18.4538C41.5569 18.7113 40.4334 18.9149 39.2222 18.2337C37.751 17.4067 36.9808 16.158 36.8676 14.4165C36.8177 13.6479 36.9133 12.944 37.0125 12.4573C37.025 12.4248 37.037 12.392 37.0487 12.3591C46.1286 8.92519 56.0422 8.92204 65.1353 12.3541C65.398 13.1026 65.8962 13.7661 66.5954 14.2472C68.855 15.8029 70.0326 18.2664 70.0957 21.5691C70.1106 22.3369 70.7503 22.9496 71.5137 22.9327C72.2822 22.918 72.8932 22.2836 72.8784 21.516C72.7772 16.2228 70.2647 13.3963 68.1744 11.9572C67.584 11.5507 67.7022 10.9375 67.7523 10.7591C67.8038 10.576 68.0296 9.97521 68.7665 9.93531C69.3823 9.90229 70.0699 9.89486 70.8093 9.91379C75.9913 10.0474 86.2092 15.9958 89.0154 23.0728C90.3402 26.4141 89.6807 29.4244 87.0554 32.0208ZM51.0929 41.1252L49.0486 39.0825C50.4018 38.883 51.7839 38.8832 53.1373 39.0825L51.0929 41.1252ZM53.4186 55.4156V56.1324C53.4186 57.4138 52.3752 58.4562 51.0927 58.4562C49.8102 58.4562 48.7669 57.4138 48.7669 56.1324V55.4156C49.6676 55.1605 50.4676 54.6644 51.0927 54.0016C51.718 54.6644 52.5181 55.1607 53.4186 55.4156Z" fill="black"/>
<path d="M45.4007 49.9337C46.1693 49.9337 46.7923 49.3107 46.7923 48.5421C46.7923 47.7735 46.1693 47.1505 45.4007 47.1505C44.6322 47.1505 44.0091 47.7735 44.0091 48.5421C44.0091 49.3107 44.6322 49.9337 45.4007 49.9337Z" fill="black"/>
<path d="M56.7859 49.9348C57.5544 49.9348 58.1775 49.3118 58.1775 48.5432C58.1775 47.7746 57.5544 47.1516 56.7859 47.1516C56.0173 47.1516 55.3943 47.7746 55.3943 48.5432C55.3943 49.3118 56.0173 49.9348 56.7859 49.9348Z" fill="black"/>
</svg>
